<svg width="287" height="287" viewBox="0 0 287 287" fill="none" xmlns="http://www.w3.org/2000/svg">
<g clip-path="url(#clip0_60008_756)">
<mask id="mask0_60008_756" style="mask-type:luminance" maskUnits="userSpaceOnUse" x="0" y="0" width="287" height="287">
<path d="M287 143.5C287 64.2471 222.753 0 143.5 0C64.2471 0 0 64.2471 0 143.5C0 222.753 64.2471 287 143.5 287C222.753 287 287 222.753 287 143.5Z" fill="white"/>
</mask>
<g mask="url(#mask0_60008_756)">
<g filter="url(#filter0_f_60008_756)">
<path d="M51.086 101.885L23.247 114.226L19.803 117.957H259.448L245.672 115.087L176.935 57.113L145.796 83.804L112.504 63.14L69.741 93.562L51.086 101.885Z" fill="url(#paint0_linear_60008_756)"/>
</g>
<g filter="url(#filter1_f_60008_756)">
<path d="M40.4669 94.71L-0.287109 140.63V149.814H289.87V140.63L277.792 135.32L264.987 117.096L238.94 103.607L217.986 86.387L197.613 75.194L178.696 80.934L155.123 88.683L139.407 78.925L125.147 80.934L112.923 74.62L90.8053 90.405L68.687 103.607L40.4669 94.71Z" fill="url(#paint1_linear_60008_756)"/>
<path d="M40.7539 94.423L-0.287109 140.486V149.814H289.87V140.63L277.792 135.32L264.987 117.096L238.94 103.607L217.986 86.387L197.613 75.194L178.696 80.934L155.123 88.683L139.407 78.925L125.147 80.934L112.923 74.62L90.8053 90.405L68.687 103.607L40.7539 94.423Z" stroke="white"/>
</g>
<path d="M276.237 178.514H10.7624C9.57357 178.514 8.60986 179.478 8.60986 180.667C8.60986 181.855 9.57357 182.819 10.7624 182.819H276.237C277.426 182.819 278.39 181.855 278.39 180.667C278.39 179.478 277.426 178.514 276.237 178.514Z" fill="#52755D"/>
<path d="M279.108 184.828H7.89249C6.7037 184.828 5.73999 185.792 5.73999 186.981C5.73999 188.169 6.7037 189.133 7.89249 189.133H279.108C280.296 189.133 281.26 188.169 281.26 186.981C281.26 185.792 280.296 184.828 279.108 184.828Z" fill="#52755D"/>
<path d="M276.237 191.142H10.7624C9.57357 191.142 8.60986 192.106 8.60986 193.294C8.60986 194.483 9.57357 195.447 10.7624 195.447H276.237C277.426 195.447 278.39 194.483 278.39 193.294C278.39 192.106 277.426 191.142 276.237 191.142Z" fill="#52755D"/>
<path d="M273.367 197.456H19.3725C18.1837 197.456 17.22 198.42 17.22 199.609C17.22 200.797 18.1837 201.761 19.3725 201.761H273.367C274.556 201.761 275.52 200.797 275.52 199.609C275.52 198.42 274.556 197.456 273.367 197.456Z" fill="#52755D"/>
<path d="M262.461 203.77H25.1125C23.9237 203.77 22.96 204.734 22.96 205.923C22.96 207.111 23.9237 208.075 25.1125 208.075H262.461C263.65 208.075 264.614 207.111 264.614 205.923C264.614 204.734 263.65 203.77 262.461 203.77Z" fill="#52755D"/>
<path d="M254.425 210.371H22.2423C21.0536 210.371 20.0898 211.335 20.0898 212.523C20.0898 213.712 21.0536 214.676 22.2423 214.676H254.425C255.614 214.676 256.578 213.712 256.578 212.523C256.578 211.335 255.614 210.371 254.425 210.371Z" fill="#52755D"/>
<path d="M259.591 216.398H29.4174C28.2286 216.398 27.2649 217.362 27.2649 218.55C27.2649 219.739 28.2286 220.703 29.4174 220.703H259.591C260.78 220.703 261.744 219.739 261.744 218.55C261.744 217.362 260.78 216.398 259.591 216.398Z" fill="#52755D"/>
<path d="M254.712 222.425H30.8525C29.6637 222.425 28.7 223.389 28.7 224.578C28.7 225.766 29.6637 226.73 30.8525 226.73H254.712C255.901 226.73 256.865 225.766 256.865 224.578C256.865 223.389 255.901 222.425 254.712 222.425Z" fill="#52755D"/>
<path d="M250.981 229.026H40.3234C39.1346 229.026 38.1709 229.99 38.1709 231.179C38.1709 232.367 39.1346 233.331 40.3234 233.331H250.981C252.17 233.331 253.134 232.367 253.134 231.179C253.134 229.99 252.17 229.026 250.981 229.026Z" fill="#52755D"/>
<path d="M240.936 235.34H42.3324C41.1436 235.34 40.1799 236.304 40.1799 237.492C40.1799 238.681 41.1436 239.645 42.3324 239.645H240.936C242.125 239.645 243.089 238.681 243.089 237.492C243.089 236.304 242.125 235.34 240.936 235.34Z" fill="#52755D"/>
<path d="M238.066 241.654H53.8124C52.6236 241.654 51.6599 242.618 51.6599 243.807C51.6599 244.995 52.6236 245.959 53.8124 245.959H238.066C239.255 245.959 240.219 244.995 240.219 243.807C240.219 242.618 239.255 241.654 238.066 241.654Z" fill="#52755D"/>
<path d="M225.151 247.968H62.9965C61.8077 247.968 60.844 248.932 60.844 250.121C60.844 251.309 61.8077 252.273 62.9965 252.273H225.151C226.34 252.273 227.304 251.309 227.304 250.121C227.304 248.932 226.34 247.968 225.151 247.968Z" fill="#52755D"/>
<path d="M204.487 254.282H82.5124C81.3236 254.282 80.3599 255.246 80.3599 256.434C80.3599 257.623 81.3236 258.587 82.5124 258.587H204.487C205.676 258.587 206.64 257.623 206.64 256.434C206.64 255.246 205.676 254.282 204.487 254.282Z" fill="#52755D"/>
<path d="M78.2075 181.384H25.1125C23.9237 181.384 22.96 182.348 22.96 183.537C22.96 184.725 23.9237 185.689 25.1125 185.689H78.2075C79.3963 185.689 80.36 184.725 80.36 183.537C80.36 182.348 79.3963 181.384 78.2075 181.384Z" fill="#52755D"/>
<path d="M116.091 187.698H62.9965C61.8077 187.698 60.844 188.662 60.844 189.85C60.844 191.039 61.8077 192.003 62.9965 192.003H116.091C117.28 192.003 118.244 191.039 118.244 189.85C118.244 188.662 117.28 187.698 116.091 187.698Z" fill="#52755D"/>
<path d="M122.692 194.012H69.5973C68.4085 194.012 67.4448 194.976 67.4448 196.164C67.4448 197.353 68.4085 198.317 69.5973 198.317H122.692C123.881 198.317 124.845 197.353 124.845 196.164C124.845 194.976 123.881 194.012 122.692 194.012Z" fill="#52755D"/>
<path d="M185.832 200.613H77.0595C75.8707 200.613 74.907 201.577 74.907 202.766C74.907 203.954 75.8707 204.918 77.0595 204.918H185.832C187.021 204.918 187.985 203.954 187.985 202.766C187.985 201.577 187.021 200.613 185.832 200.613Z" fill="#52755D"/>
<path d="M224.003 207.214H52.6645C51.4757 207.214 50.512 208.178 50.512 209.366C50.512 210.555 51.4757 211.519 52.6645 211.519H224.003C225.192 211.519 226.156 210.555 226.156 209.366C226.156 208.178 225.192 207.214 224.003 207.214Z" fill="#52755D"/>
<path d="M243.806 213.241H160.002C158.814 213.241 157.85 214.205 157.85 215.393C157.85 216.582 158.814 217.546 160.002 217.546H243.806C244.995 217.546 245.959 216.582 245.959 215.393C245.959 214.205 244.995 213.241 243.806 213.241Z" fill="#52755D"/>
<path d="M144.504 213.241H60.7004C59.5116 213.241 58.5479 214.205 58.5479 215.393C58.5479 216.582 59.5116 217.546 60.7004 217.546H144.504C145.693 217.546 146.657 216.582 146.657 215.393C146.657 214.205 145.693 213.241 144.504 213.241Z" fill="#52755D"/>
<path d="M189.276 219.555H114.656C113.468 219.555 112.504 220.519 112.504 221.707C112.504 222.896 113.468 223.86 114.656 223.86H189.276C190.465 223.86 191.429 222.896 191.429 221.707C191.429 220.519 190.465 219.555 189.276 219.555Z" fill="#52755D"/>
<path d="M88.8264 219.268H55.8214C54.6327 219.268 53.6689 220.232 53.6689 221.421C53.6689 222.609 54.6327 223.573 55.8214 223.573H88.8264C90.0152 223.573 90.9789 222.609 90.9789 221.421C90.9789 220.232 90.0152 219.268 88.8264 219.268Z" fill="#52755D"/>
<path d="M240.076 225.582H62.9965C61.8077 225.582 60.844 226.546 60.844 227.735C60.844 228.923 61.8077 229.887 62.9965 229.887H240.076C241.264 229.887 242.228 228.923 242.228 227.735C242.228 226.546 241.264 225.582 240.076 225.582Z" fill="#52755D"/>
<path d="M122.692 232.183H89.6874C88.4986 232.183 87.5349 233.147 87.5349 234.335C87.5349 235.524 88.4986 236.488 89.6874 236.488H122.692C123.881 236.488 124.845 235.524 124.845 234.335C124.845 233.147 123.881 232.183 122.692 232.183Z" fill="#52755D"/>
<path d="M231.752 232.183H153.975C152.787 232.183 151.823 233.147 151.823 234.335C151.823 235.524 152.787 236.488 153.975 236.488H231.752C232.941 236.488 233.905 235.524 233.905 234.335C233.905 233.147 232.941 232.183 231.752 232.183Z" fill="#52755D"/>
<path d="M204.487 238.497H78.7814C77.5926 238.497 76.6289 239.461 76.6289 240.649C76.6289 241.838 77.5926 242.802 78.7814 242.802H204.487C205.676 242.802 206.64 241.838 206.64 240.649C206.64 239.461 205.676 238.497 204.487 238.497Z" fill="#52755D"/>
<path d="M196.451 251.125H107.768C106.58 251.125 105.616 252.089 105.616 253.277C105.616 254.466 106.58 255.43 107.768 255.43H196.451C197.64 255.43 198.604 254.466 198.604 253.277C198.604 252.089 197.64 251.125 196.451 251.125Z" fill="#52755D"/>
<path d="M259.304 187.698H125.562C124.374 187.698 123.41 188.662 123.41 189.85C123.41 191.039 124.374 192.003 125.562 192.003H259.304C260.493 192.003 261.457 191.039 261.457 189.85C261.457 188.662 260.493 187.698 259.304 187.698Z" fill="#52755D"/>
<path d="M254.712 194.012H133.885C132.697 194.012 131.733 194.976 131.733 196.164C131.733 197.353 132.697 198.317 133.885 198.317H254.712C255.901 198.317 256.865 197.353 256.865 196.164C256.865 194.976 255.901 194.012 254.712 194.012Z" fill="#52755D"/>
<path d="M194.155 181.384H101.167C99.9786 181.384 99.0149 182.348 99.0149 183.537C99.0149 184.725 99.9786 185.689 101.167 185.689H194.155C195.344 185.689 196.308 184.725 196.308 183.537C196.308 182.348 195.344 181.384 194.155 181.384Z" fill="#52755D"/>
<path d="M171.769 260.596H118.674C117.486 260.596 116.522 261.56 116.522 262.748C116.522 263.937 117.486 264.901 118.674 264.901H171.769C172.958 264.901 173.922 263.937 173.922 262.748C173.922 261.56 172.958 260.596 171.769 260.596Z" fill="#52755D"/>
<path d="M122.836 269.35C122.836 268.161 123.8 267.197 124.988 267.197H178.083C179.272 267.197 180.236 268.161 180.236 269.35C180.236 270.538 179.272 271.502 178.083 271.502H124.988C123.8 271.502 122.836 270.538 122.836 269.35Z" fill="#52755D"/>
<path d="M99.0149 143.5H74.9069C74.1144 143.5 73.4719 144.142 73.4719 144.935V154.406C73.4719 155.199 74.1144 155.841 74.9069 155.841H99.0149C99.8075 155.841 100.45 155.199 100.45 154.406V144.935C100.45 144.142 99.8075 143.5 99.0149 143.5Z" fill="url(#paint2_linear_60008_756)"/>
<path d="M99.015 143.07H74.907C73.8767 143.07 73.0415 143.905 73.0415 144.935V154.406C73.0415 155.436 73.8767 156.272 74.907 156.272H99.015C100.045 156.272 100.881 155.436 100.881 154.406V144.935C100.881 143.905 100.045 143.07 99.015 143.07Z" stroke="white" stroke-opacity="0.8" stroke-width="3"/>
<path d="M212.38 129.437H202.335C201.542 129.437 200.9 130.079 200.9 130.872V149.527C200.9 150.32 201.542 150.962 202.335 150.962H212.38C213.172 150.962 213.815 150.32 213.815 149.527V130.872C213.815 130.079 213.172 129.437 212.38 129.437Z" fill="url(#paint3_linear_60008_756)"/>
<path d="M212.38 129.006H202.335C201.305 129.006 200.469 129.842 200.469 130.872V149.527C200.469 150.557 201.305 151.392 202.335 151.392H212.38C213.41 151.392 214.245 150.557 214.245 149.527V130.872C214.245 129.842 213.41 129.006 212.38 129.006Z" stroke="white" stroke-opacity="0.8" stroke-width="3"/>
<path d="M119.966 130.872H101.885C101.092 130.872 100.45 131.514 100.45 132.307V154.406C100.45 155.199 101.092 155.841 101.885 155.841H119.966C120.758 155.841 121.401 155.199 121.401 154.406V132.307C121.401 131.514 120.758 130.872 119.966 130.872Z" fill="url(#paint4_linear_60008_756)"/>
<path d="M119.966 130.442H101.885C100.854 130.442 100.019 131.277 100.019 132.307V154.406C100.019 155.436 100.854 156.272 101.885 156.272H119.966C120.996 156.272 121.831 155.436 121.831 154.406V132.307C121.831 131.277 120.996 130.442 119.966 130.442Z" stroke="white" stroke-opacity="0.8" stroke-width="3"/>
<path d="M131.733 118.818H119.966C119.173 118.818 118.531 119.46 118.531 120.253V156.702C118.531 157.495 119.173 158.137 119.966 158.137H131.733C132.526 158.137 133.168 157.495 133.168 156.702V120.253C133.168 119.46 132.526 118.818 131.733 118.818Z" fill="url(#paint5_linear_60008_756)"/>
<path d="M131.733 118.388H119.966C118.936 118.388 118.1 119.223 118.1 120.253V156.702C118.1 157.732 118.936 158.568 119.966 158.568H131.733C132.763 158.568 133.598 157.732 133.598 156.702V120.253C133.598 119.223 132.763 118.388 131.733 118.388Z" stroke="white" stroke-opacity="0.8" stroke-width="3"/>
<path d="M173.348 118.818H156.989C156.196 118.818 155.554 119.46 155.554 120.253V155.554C155.554 156.347 156.196 156.989 156.989 156.989H173.348C174.14 156.989 174.783 156.347 174.783 155.554V120.253C174.783 119.46 174.14 118.818 173.348 118.818Z" fill="url(#paint6_linear_60008_756)"/>
<path d="M173.348 118.388H156.989C155.959 118.388 155.123 119.223 155.123 120.253V155.554C155.123 156.584 155.959 157.42 156.989 157.42H173.348C174.378 157.42 175.213 156.584 175.213 155.554V120.253C175.213 119.223 174.378 118.388 173.348 118.388Z" stroke="white" stroke-opacity="0.8" stroke-width="3"/>
<path d="M139.195 110.495H134.603C133.81 110.495 133.168 111.137 133.168 111.93V156.702C133.168 157.495 133.81 158.137 134.603 158.137H139.195C139.987 158.137 140.63 157.495 140.63 156.702V111.93C140.63 111.137 139.987 110.495 139.195 110.495Z" fill="url(#paint7_linear_60008_756)"/>
<path d="M139.195 110.065H134.603C133.573 110.065 132.737 110.9 132.737 111.93V156.702C132.737 157.732 133.573 158.568 134.603 158.568H139.195C140.225 158.568 141.06 157.732 141.06 156.702V111.93C141.06 110.9 140.225 110.065 139.195 110.065Z" stroke="white" stroke-opacity="0.8" stroke-width="3"/>
<path d="M163.016 112.217H158.424C157.631 112.217 156.989 112.859 156.989 113.652V158.424C156.989 159.217 157.631 159.859 158.424 159.859H163.016C163.808 159.859 164.451 159.217 164.451 158.424V113.652C164.451 112.859 163.808 112.217 163.016 112.217Z" fill="url(#paint8_linear_60008_756)"/>
<path d="M163.016 111.786H158.424C157.394 111.786 156.558 112.622 156.558 113.652V158.424C156.558 159.454 157.394 160.289 158.424 160.289H163.016C164.046 160.289 164.881 159.454 164.881 158.424V113.652C164.881 112.622 164.046 111.786 163.016 111.786Z" stroke="white" stroke-opacity="0.8" stroke-width="3"/>
<path d="M154.119 90.979H142.065C141.272 90.979 140.63 91.6215 140.63 92.414V158.998C140.63 159.791 141.272 160.433 142.065 160.433H154.119C154.911 160.433 155.554 159.791 155.554 158.998V92.414C155.554 91.6215 154.911 90.979 154.119 90.979Z" fill="url(#paint9_linear_60008_756)"/>
<path d="M154.119 90.5485H142.065C141.035 90.5485 140.199 91.3837 140.199 92.414V158.998C140.199 160.028 141.035 160.864 142.065 160.864H154.119C155.149 160.864 155.984 160.028 155.984 158.998V92.414C155.984 91.3837 155.149 90.5485 154.119 90.5485Z" stroke="white" stroke-opacity="0.8" stroke-width="3"/>
<path d="M198.03 92.701H176.218C175.425 92.701 174.783 93.3435 174.783 94.136V160.72C174.783 161.513 175.425 162.155 176.218 162.155H198.03C198.822 162.155 199.465 161.513 199.465 160.72V94.136C199.465 93.3435 198.822 92.701 198.03 92.701Z" fill="url(#paint10_linear_60008_756)"/>
<path d="M198.03 92.2705H176.218C175.188 92.2705 174.352 93.1057 174.352 94.136V160.72C174.352 161.75 175.188 162.586 176.218 162.586H198.03C199.06 162.586 199.895 161.75 199.895 160.72V94.136C199.895 93.1057 199.06 92.2705 198.03 92.2705Z" stroke="white" stroke-opacity="0.8" stroke-width="3"/>
<path d="M202.622 118.818H192.003C191.21 118.818 190.568 119.46 190.568 120.253V156.702C190.568 157.495 191.21 158.137 192.003 158.137H202.622C203.414 158.137 204.057 157.495 204.057 156.702V120.253C204.057 119.46 203.414 118.818 202.622 118.818Z" fill="url(#paint11_linear_60008_756)"/>
<path d="M202.622 118.388H192.003C190.973 118.388 190.137 119.223 190.137 120.253V156.702C190.137 157.732 190.973 158.568 192.003 158.568H202.622C203.652 158.568 204.487 157.732 204.487 156.702V120.253C204.487 119.223 203.652 118.388 202.622 118.388Z" stroke="white" stroke-opacity="0.8" stroke-width="3"/>
<path d="M64.4313 152.179C64.4313 152.179 58.2608 149.739 56.5388 149.739C54.8168 149.739 48.9333 155.623 48.9333 155.623L37.8838 162.224H246.82C238.353 152.179 238.066 159.497 227.734 150.887C217.402 142.277 210.514 143.569 210.514 143.569H206.209H200.182C200.182 143.569 197.312 144.717 186.693 148.161C176.074 151.605 174.926 150.887 174.926 150.887L170.047 152.179L157.706 150.887L149.096 152.179H142.495L136.468 156.627C125.562 155.479 122.577 151.544 115.267 152.179C107.958 152.814 102.253 155.623 102.253 155.623L95.1403 154.188C88.9698 155.623 92.7008 157.345 82.7993 155.408C72.8978 153.47 69.7408 152.862 69.7408 152.862L64.4313 152.179Z" fill="url(#paint12_linear_60008_756)" stroke="white"/>
<path d="M264.757 171.339H22.2423C21.0536 171.339 20.0898 172.303 20.0898 173.491C20.0898 174.68 21.0536 175.644 22.2423 175.644H264.757C265.946 175.644 266.91 174.68 266.91 173.491C266.91 172.303 265.946 171.339 264.757 171.339Z" fill="#384730"/>
<path d="M248.973 165.025H38.0275C36.8387 165.025 35.875 165.989 35.875 167.178C35.875 168.366 36.8387 169.33 38.0275 169.33H248.973C250.161 169.33 251.125 168.366 251.125 167.178C251.125 165.989 250.161 165.025 248.973 165.025Z" fill="#384730"/>
<mask id="mask1_60008_756" style="mask-type:alpha" maskUnits="userSpaceOnUse" x="73" y="165" width="145" height="75">
<path d="M217.833 165.025H73.1848V239.645H217.833V165.025Z" fill="white"/>
</mask>
<g mask="url(#mask1_60008_756)">
<g filter="url(#filter2_f_60008_756)">
<path d="M98.7278 181.097H74.6198C73.8273 181.097 73.1848 180.455 73.1848 179.662V170.191C73.1848 169.399 73.8273 168.756 74.6198 168.756H98.7278C99.5203 168.756 100.163 169.399 100.163 170.191V179.662C100.163 180.455 99.5203 181.097 98.7278 181.097Z" fill="#F0B862" fill-opacity="0.3"/>
<path d="M98.7279 181.528H74.6199C73.5896 181.528 72.7544 180.692 72.7544 179.662V170.191C72.7544 169.161 73.5896 168.326 74.6199 168.326H98.7279C99.7582 168.326 100.593 169.161 100.593 170.191V179.662C100.593 180.692 99.7582 181.528 98.7279 181.528Z" stroke="white" stroke-opacity="0.3" stroke-width="3"/>
</g>
<g filter="url(#filter3_f_60008_756)">
<path d="M212.093 195.16H202.048C201.255 195.16 200.613 194.518 200.613 193.725V175.07C200.613 174.278 201.255 173.635 202.048 173.635H212.093C212.885 173.635 213.528 174.278 213.528 175.07V193.725C213.528 194.518 212.885 195.16 212.093 195.16Z" fill="#F0B862" fill-opacity="0.3"/>
<path d="M212.093 195.591H202.048C201.018 195.591 200.182 194.755 200.182 193.725V175.07C200.182 174.04 201.018 173.205 202.048 173.205H212.093C213.123 173.205 213.958 174.04 213.958 175.07V193.725C213.958 194.755 213.123 195.591 212.093 195.591Z" stroke="white" stroke-opacity="0.3" stroke-width="3"/>
</g>
<g filter="url(#filter4_f_60008_756)">
<path d="M119.679 193.725H101.598C100.805 193.725 100.163 193.083 100.163 192.29V170.191C100.163 169.399 100.805 168.756 101.598 168.756H119.679C120.471 168.756 121.114 169.399 121.114 170.191V192.29C121.114 193.083 120.471 193.725 119.679 193.725Z" fill="#F0B862" fill-opacity="0.3"/>
<path d="M119.679 194.156H101.598C100.568 194.156 99.7324 193.32 99.7324 192.29V170.191C99.7324 169.161 100.568 168.326 101.598 168.326H119.679C120.709 168.326 121.544 169.161 121.544 170.191V192.29C121.544 193.32 120.709 194.156 119.679 194.156Z" stroke="white" stroke-opacity="0.3" stroke-width="3"/>
</g>
<g filter="url(#filter5_f_60008_756)">
<path d="M131.446 205.779H119.679C118.886 205.779 118.244 205.137 118.244 204.344V167.895C118.244 167.103 118.886 166.46 119.679 166.46H131.446C132.238 166.46 132.881 167.103 132.881 167.895V204.344C132.881 205.137 132.238 205.779 131.446 205.779Z" fill="#F0B862" fill-opacity="0.3"/>
<path d="M131.446 206.21H119.679C118.649 206.21 117.813 205.374 117.813 204.344V167.895C117.813 166.865 118.649 166.03 119.679 166.03H131.446C132.476 166.03 133.311 166.865 133.311 167.895V204.344C133.311 205.374 132.476 206.21 131.446 206.21Z" stroke="white" stroke-opacity="0.3" stroke-width="3"/>
</g>
<g filter="url(#filter6_f_60008_756)">
<path d="M173.061 205.779H156.702C155.909 205.779 155.267 205.137 155.267 204.344V169.043C155.267 168.251 155.909 167.608 156.702 167.608H173.061C173.853 167.608 174.496 168.251 174.496 169.043V204.344C174.496 205.137 173.853 205.779 173.061 205.779Z" fill="#F0B862" fill-opacity="0.3"/>
<path d="M173.061 206.21H156.702C155.672 206.21 154.836 205.374 154.836 204.344V169.043C154.836 168.013 155.672 167.178 156.702 167.178H173.061C174.091 167.178 174.926 168.013 174.926 169.043V204.344C174.926 205.374 174.091 206.21 173.061 206.21Z" stroke="white" stroke-opacity="0.3" stroke-width="3"/>
</g>
<g filter="url(#filter7_f_60008_756)">
<path d="M138.908 214.102H134.316C133.523 214.102 132.881 213.46 132.881 212.667V167.895C132.881 167.103 133.523 166.46 134.316 166.46H138.908C139.7 166.46 140.343 167.103 140.343 167.895V212.667C140.343 213.46 139.7 214.102 138.908 214.102Z" fill="#F0B862" fill-opacity="0.3"/>
<path d="M138.908 214.533H134.316C133.286 214.533 132.45 213.697 132.45 212.667V167.895C132.45 166.865 133.286 166.03 134.316 166.03H138.908C139.938 166.03 140.773 166.865 140.773 167.895V212.667C140.773 213.697 139.938 214.533 138.908 214.533Z" stroke="white" stroke-opacity="0.3" stroke-width="3"/>
</g>
<g filter="url(#filter8_f_60008_756)">
<path d="M162.729 212.38H158.137C157.344 212.38 156.702 211.738 156.702 210.945V166.173C156.702 165.38 157.344 164.738 158.137 164.738H162.729C163.521 164.738 164.164 165.38 164.164 166.173V210.945C164.164 211.738 163.521 212.38 162.729 212.38Z" fill="#F0B862" fill-opacity="0.3"/>
<path d="M162.729 212.811H158.137C157.107 212.811 156.271 211.975 156.271 210.945V166.173C156.271 165.143 157.107 164.308 158.137 164.308H162.729C163.759 164.308 164.594 165.143 164.594 166.173V210.945C164.594 211.975 163.759 212.811 162.729 212.811Z" stroke="white" stroke-opacity="0.3" stroke-width="3"/>
</g>
<g filter="url(#filter9_f_60008_756)">
<path d="M153.832 233.618H141.778C140.985 233.618 140.343 232.976 140.343 232.183V165.599C140.343 164.807 140.985 164.164 141.778 164.164H153.832C154.624 164.164 155.267 164.807 155.267 165.599V232.183C155.267 232.976 154.624 233.618 153.832 233.618Z" fill="#929773" fill-opacity="0.3"/>
<path d="M153.832 234.049H141.778C140.748 234.049 139.912 233.213 139.912 232.183V165.599C139.912 164.569 140.748 163.734 141.778 163.734H153.832C154.862 163.734 155.697 164.569 155.697 165.599V232.183C155.697 233.213 154.862 234.049 153.832 234.049Z" stroke="white" stroke-opacity="0.3" stroke-width="3"/>
</g>
<g filter="url(#filter10_f_60008_756)">
<path d="M197.743 231.896H175.931C175.138 231.896 174.496 231.254 174.496 230.461V163.877C174.496 163.084 175.138 162.442 175.931 162.442H197.743C198.535 162.442 199.178 163.084 199.178 163.877V230.461C199.178 231.254 198.535 231.896 197.743 231.896Z" fill="#F0B862" fill-opacity="0.3"/>
<path d="M197.743 232.327H175.931C174.901 232.327 174.065 231.491 174.065 230.461V163.877C174.065 162.847 174.901 162.012 175.931 162.012H197.743C198.773 162.012 199.608 162.847 199.608 163.877V230.461C199.608 231.491 198.773 232.327 197.743 232.327Z" stroke="white" stroke-opacity="0.3" stroke-width="3"/>
</g>
<g filter="url(#filter11_f_60008_756)">
<path d="M202.335 205.779H191.716C190.923 205.779 190.281 205.137 190.281 204.344V167.895C190.281 167.103 190.923 166.46 191.716 166.46H202.335C203.127 166.46 203.77 167.103 203.77 167.895V204.344C203.77 205.137 203.127 205.779 202.335 205.779Z" fill="#F0B862" fill-opacity="0.3"/>
<path d="M202.335 206.21H191.716C190.686 206.21 189.85 205.374 189.85 204.344V167.895C189.85 166.865 190.686 166.03 191.716 166.03H202.335C203.365 166.03 204.2 166.865 204.2 167.895V204.344C204.2 205.374 203.365 206.21 202.335 206.21Z" stroke="white" stroke-opacity="0.3" stroke-width="3"/>
</g>
</g>
</g>
</g>
<defs>
<filter id="filter0_f_60008_756" x="15.803" y="53.113" width="247.645" height="68.844" filterUnits="userSpaceOnUse" color-interpolation-filters="sRGB">
<feFlood flood-opacity="0" result="BackgroundImageFix"/>
<feBlend mode="normal" in="SourceGraphic" in2="BackgroundImageFix" result="shape"/>
<feGaussianBlur stdDeviation="2" result="effect1_foregroundBlur_60008_756"/>
</filter>
<filter id="filter1_f_60008_756" x="-1.78711" y="73.0356" width="293.157" height="78.2784" filterUnits="userSpaceOnUse" color-interpolation-filters="sRGB">
<feFlood flood-opacity="0" result="BackgroundImageFix"/>
<feBlend mode="normal" in="SourceGraphic" in2="BackgroundImageFix" result="shape"/>
<feGaussianBlur stdDeviation="0.5" result="effect1_foregroundBlur_60008_756"/>
</filter>
<filter id="filter2_f_60008_756" x="67.2544" y="162.826" width="38.8391" height="24.202" filterUnits="userSpaceOnUse" color-interpolation-filters="sRGB">
<feFlood flood-opacity="0" result="BackgroundImageFix"/>
<feBlend mode="normal" in="SourceGraphic" in2="BackgroundImageFix" result="shape"/>
<feGaussianBlur stdDeviation="2" result="effect1_foregroundBlur_60008_756"/>
</filter>
<filter id="filter3_f_60008_756" x="194.682" y="167.705" width="24.7759" height="33.386" filterUnits="userSpaceOnUse" color-interpolation-filters="sRGB">
<feFlood flood-opacity="0" result="BackgroundImageFix"/>
<feBlend mode="normal" in="SourceGraphic" in2="BackgroundImageFix" result="shape"/>
<feGaussianBlur stdDeviation="2" result="effect1_foregroundBlur_60008_756"/>
</filter>
<filter id="filter4_f_60008_756" x="94.2324" y="162.826" width="32.812" height="36.83" filterUnits="userSpaceOnUse" color-interpolation-filters="sRGB">
<feFlood flood-opacity="0" result="BackgroundImageFix"/>
<feBlend mode="normal" in="SourceGraphic" in2="BackgroundImageFix" result="shape"/>
<feGaussianBlur stdDeviation="2" result="effect1_foregroundBlur_60008_756"/>
</filter>
<filter id="filter5_f_60008_756" x="112.313" y="160.53" width="26.498" height="51.18" filterUnits="userSpaceOnUse" color-interpolation-filters="sRGB">
<feFlood flood-opacity="0" result="BackgroundImageFix"/>
<feBlend mode="normal" in="SourceGraphic" in2="BackgroundImageFix" result="shape"/>
<feGaussianBlur stdDeviation="2" result="effect1_foregroundBlur_60008_756"/>
</filter>
<filter id="filter6_f_60008_756" x="149.336" y="161.678" width="31.0901" height="50.032" filterUnits="userSpaceOnUse" color-interpolation-filters="sRGB">
<feFlood flood-opacity="0" result="BackgroundImageFix"/>
<feBlend mode="normal" in="SourceGraphic" in2="BackgroundImageFix" result="shape"/>
<feGaussianBlur stdDeviation="2" result="effect1_foregroundBlur_60008_756"/>
</filter>
<filter id="filter7_f_60008_756" x="126.95" y="160.53" width="19.323" height="59.503" filterUnits="userSpaceOnUse" color-interpolation-filters="sRGB">
<feFlood flood-opacity="0" result="BackgroundImageFix"/>
<feBlend mode="normal" in="SourceGraphic" in2="BackgroundImageFix" result="shape"/>
<feGaussianBlur stdDeviation="2" result="effect1_foregroundBlur_60008_756"/>
</filter>
<filter id="filter8_f_60008_756" x="150.771" y="158.808" width="19.323" height="59.503" filterUnits="userSpaceOnUse" color-interpolation-filters="sRGB">
<feFlood flood-opacity="0" result="BackgroundImageFix"/>
<feBlend mode="normal" in="SourceGraphic" in2="BackgroundImageFix" result="shape"/>
<feGaussianBlur stdDeviation="2" result="effect1_foregroundBlur_60008_756"/>
</filter>
<filter id="filter9_f_60008_756" x="134.412" y="158.234" width="26.7849" height="81.315" filterUnits="userSpaceOnUse" color-interpolation-filters="sRGB">
<feFlood flood-opacity="0" result="BackgroundImageFix"/>
<feBlend mode="normal" in="SourceGraphic" in2="BackgroundImageFix" result="shape"/>
<feGaussianBlur stdDeviation="2" result="effect1_foregroundBlur_60008_756"/>
</filter>
<filter id="filter10_f_60008_756" x="168.565" y="156.512" width="36.543" height="81.315" filterUnits="userSpaceOnUse" color-interpolation-filters="sRGB">
<feFlood flood-opacity="0" result="BackgroundImageFix"/>
<feBlend mode="normal" in="SourceGraphic" in2="BackgroundImageFix" result="shape"/>
<feGaussianBlur stdDeviation="2" result="effect1_foregroundBlur_60008_756"/>
</filter>
<filter id="filter11_f_60008_756" x="184.35" y="160.53" width="25.3501" height="51.18" filterUnits="userSpaceOnUse" color-interpolation-filters="sRGB">
<feFlood flood-opacity="0" result="BackgroundImageFix"/>
<feBlend mode="normal" in="SourceGraphic" in2="BackgroundImageFix" result="shape"/>
<feGaussianBlur stdDeviation="2" result="effect1_foregroundBlur_60008_756"/>
</filter>
<linearGradient id="paint0_linear_60008_756" x1="14.924" y1="86.961" x2="259.448" y2="86.961" gradientUnits="userSpaceOnUse">
<stop stop-color="#CADCC2"/>
<stop offset="1" stop-color="#DEE3DC"/>
</linearGradient>
<linearGradient id="paint1_linear_60008_756" x1="145.373" y1="86.387" x2="145.373" y2="149.814" gradientUnits="userSpaceOnUse">
<stop stop-color="#719A7C"/>
<stop offset="1" stop-color="#223227"/>
</linearGradient>
<linearGradient id="paint2_linear_60008_756" x1="86.9609" y1="143.5" x2="86.9609" y2="155.841" gradientUnits="userSpaceOnUse">
<stop stop-color="#F0B862"/>
<stop offset="1" stop-color="#8A6A38"/>
</linearGradient>
<linearGradient id="paint3_linear_60008_756" x1="207.357" y1="129.437" x2="207.357" y2="150.962" gradientUnits="userSpaceOnUse">
<stop stop-color="#F0B862"/>
<stop offset="1" stop-color="#8A6A38"/>
</linearGradient>
<linearGradient id="paint4_linear_60008_756" x1="110.925" y1="130.872" x2="110.925" y2="155.841" gradientUnits="userSpaceOnUse">
<stop stop-color="#F0B862"/>
<stop offset="1" stop-color="#8A6A38"/>
</linearGradient>
<linearGradient id="paint5_linear_60008_756" x1="125.85" y1="118.818" x2="125.85" y2="158.137" gradientUnits="userSpaceOnUse">
<stop stop-color="#F0B862"/>
<stop offset="1" stop-color="#8A6A38"/>
</linearGradient>
<linearGradient id="paint6_linear_60008_756" x1="165.168" y1="118.818" x2="165.168" y2="156.989" gradientUnits="userSpaceOnUse">
<stop stop-color="#F0B862"/>
<stop offset="1" stop-color="#8A6A38"/>
</linearGradient>
<linearGradient id="paint7_linear_60008_756" x1="136.899" y1="110.495" x2="136.899" y2="158.137" gradientUnits="userSpaceOnUse">
<stop stop-color="#F0B862"/>
<stop offset="1" stop-color="#8A6A38"/>
</linearGradient>
<linearGradient id="paint8_linear_60008_756" x1="160.72" y1="112.217" x2="160.72" y2="159.859" gradientUnits="userSpaceOnUse">
<stop stop-color="#F0B862"/>
<stop offset="1" stop-color="#8A6A38"/>
</linearGradient>
<linearGradient id="paint9_linear_60008_756" x1="148.092" y1="90.979" x2="148.092" y2="160.433" gradientUnits="userSpaceOnUse">
<stop stop-color="#929773"/>
<stop offset="1" stop-color="#2F3125"/>
</linearGradient>
<linearGradient id="paint10_linear_60008_756" x1="187.124" y1="92.701" x2="187.124" y2="162.155" gradientUnits="userSpaceOnUse">
<stop stop-color="#F0B862"/>
<stop offset="1" stop-color="#8A6A38"/>
</linearGradient>
<linearGradient id="paint11_linear_60008_756" x1="197.312" y1="118.818" x2="197.312" y2="158.137" gradientUnits="userSpaceOnUse">
<stop stop-color="#F0B862"/>
<stop offset="1" stop-color="#8A6A38"/>
</linearGradient>
<linearGradient id="paint12_linear_60008_756" x1="142.352" y1="162.224" x2="142.352" y2="143.5" gradientUnits="userSpaceOnUse">
<stop stop-color="#384730"/>
<stop offset="1" stop-color="#394731"/>
</linearGradient>
<clipPath id="clip0_60008_756">
<rect width="287" height="287" fill="white"/>
</clipPath>
</defs>
</svg>
