<svg width="287" height="287" viewBox="0 0 287 287" fill="none" xmlns="http://www.w3.org/2000/svg">
<g clip-path="url(#clip0_60144_1105)">
<mask id="mask0_60144_1105" style="mask-type:luminance" maskUnits="userSpaceOnUse" x="0" y="0" width="287" height="287">
<path d="M287 0H0V287H287V0Z" fill="white"/>
</mask>
<g mask="url(#mask0_60144_1105)">
<mask id="mask1_60144_1105" style="mask-type:luminance" maskUnits="userSpaceOnUse" x="0" y="0" width="287" height="287">
<path d="M287 143.5C287 64.2471 222.753 0 143.5 0C64.2471 0 0 64.2471 0 143.5C0 222.753 64.2471 287 143.5 287C222.753 287 287 222.753 287 143.5Z" fill="white"/>
</mask>
<g mask="url(#mask1_60144_1105)">
<g filter="url(#filter0_f_60144_1105)">
<path d="M51.0857 101.885L23.2467 114.226L19.8027 117.957H259.448L245.672 115.087L176.935 57.113L145.796 83.804L112.504 63.14L69.7407 93.562L51.0857 101.885Z" fill="url(#paint0_linear_60144_1105)"/>
</g>
<g filter="url(#filter1_f_60144_1105)">
<path d="M40.4669 94.7101L-0.287109 140.63V149.814H289.87V140.63L277.792 135.32L264.987 117.096L238.94 103.607L217.986 86.3871L197.613 75.1941L178.696 80.9341L155.123 88.6831L139.407 78.9251L125.147 80.9341L112.923 74.6201L90.8053 90.4051L68.687 103.607L40.4669 94.7101Z" fill="url(#paint1_linear_60144_1105)"/>
<path d="M40.7539 94.4231L-0.287109 140.486V149.814H289.87V140.63L277.792 135.32L264.987 117.096L238.94 103.607L217.986 86.3871L197.613 75.1941L178.696 80.9341L155.123 88.6831L139.407 78.9251L125.147 80.9341L112.923 74.6201L90.8053 90.4051L68.687 103.607L40.7539 94.4231Z" stroke="white"/>
</g>
<path d="M276.237 178.514H10.7619C9.57308 178.514 8.60938 179.478 8.60938 180.667C8.60938 181.855 9.57308 182.819 10.7619 182.819H276.237C277.426 182.819 278.39 181.855 278.39 180.667C278.39 179.478 277.426 178.514 276.237 178.514Z" fill="#52755D"/>
<path d="M279.108 184.828H7.89273C6.70394 184.828 5.74023 185.792 5.74023 186.981C5.74023 188.169 6.70394 189.133 7.89273 189.133H279.108C280.296 189.133 281.26 188.169 281.26 186.981C281.26 185.792 280.296 184.828 279.108 184.828Z" fill="#52755D"/>
<path d="M276.237 191.142H10.7619C9.57308 191.142 8.60938 192.106 8.60938 193.294C8.60938 194.483 9.57308 195.447 10.7619 195.447H276.237C277.426 195.447 278.39 194.483 278.39 193.294C278.39 192.106 277.426 191.142 276.237 191.142Z" fill="#52755D"/>
<path d="M273.368 197.456H19.3732C18.1844 197.456 17.2207 198.42 17.2207 199.609C17.2207 200.797 18.1844 201.761 19.3732 201.761H273.368C274.557 201.761 275.521 200.797 275.521 199.609C275.521 198.42 274.557 197.456 273.368 197.456Z" fill="#52755D"/>
<path d="M262.462 203.77H25.1134C23.9246 203.77 22.9609 204.734 22.9609 205.923C22.9609 207.111 23.9246 208.075 25.1134 208.075H262.462C263.651 208.075 264.615 207.111 264.615 205.923C264.615 204.734 263.651 203.77 262.462 203.77Z" fill="#52755D"/>
<path d="M254.425 210.371H22.2423C21.0536 210.371 20.0898 211.335 20.0898 212.523C20.0898 213.712 21.0536 214.676 22.2423 214.676H254.425C255.614 214.676 256.578 213.712 256.578 212.523C256.578 211.335 255.614 210.371 254.425 210.371Z" fill="#52755D"/>
<path d="M259.592 216.398H29.4181C28.2293 216.398 27.2656 217.362 27.2656 218.55C27.2656 219.739 28.2293 220.703 29.4181 220.703H259.592C260.781 220.703 261.745 219.739 261.745 218.55C261.745 217.362 260.781 216.398 259.592 216.398Z" fill="#52755D"/>
<path d="M254.711 222.425H30.8517C29.6629 222.425 28.6992 223.389 28.6992 224.578C28.6992 225.766 29.6629 226.73 30.8517 226.73H254.711C255.9 226.73 256.864 225.766 256.864 224.578C256.864 223.389 255.9 222.425 254.711 222.425Z" fill="#52755D"/>
<path d="M250.982 229.026H40.3244C39.1356 229.026 38.1719 229.99 38.1719 231.179C38.1719 232.367 39.1356 233.331 40.3244 233.331H250.982C252.171 233.331 253.135 232.367 253.135 231.179C253.135 229.99 252.171 229.026 250.982 229.026Z" fill="#52755D"/>
<path d="M240.936 235.34H42.3322C41.1434 235.34 40.1797 236.304 40.1797 237.492C40.1797 238.681 41.1434 239.645 42.3322 239.645H240.936C242.125 239.645 243.089 238.681 243.089 237.492C243.089 236.304 242.125 235.34 240.936 235.34Z" fill="#52755D"/>
<path d="M238.066 241.654H53.8127C52.6239 241.654 51.6602 242.618 51.6602 243.807C51.6602 244.995 52.6239 245.959 53.8127 245.959H238.066C239.255 245.959 240.219 244.995 240.219 243.807C240.219 242.618 239.255 241.654 238.066 241.654Z" fill="#52755D"/>
<path d="M225.151 247.968H62.9962C61.8074 247.968 60.8438 248.932 60.8438 250.121C60.8438 251.309 61.8074 252.273 62.9962 252.273H225.151C226.34 252.273 227.304 251.309 227.304 250.121C227.304 248.932 226.34 247.968 225.151 247.968Z" fill="#52755D"/>
<path d="M204.486 254.282H82.5119C81.3231 254.282 80.3594 255.246 80.3594 256.434C80.3594 257.623 81.3231 258.587 82.5119 258.587H204.486C205.675 258.587 206.639 257.623 206.639 256.434C206.639 255.246 205.675 254.282 204.486 254.282Z" fill="#52755D"/>
<path d="M78.2084 181.384H25.1134C23.9246 181.384 22.9609 182.348 22.9609 183.537C22.9609 184.725 23.9246 185.689 25.1134 185.689H78.2084C79.3972 185.689 80.3609 184.725 80.3609 183.537C80.3609 182.348 79.3972 181.384 78.2084 181.384Z" fill="#52755D"/>
<path d="M116.091 187.698H62.9962C61.8074 187.698 60.8438 188.662 60.8438 189.85C60.8438 191.039 61.8074 192.003 62.9962 192.003H116.091C117.28 192.003 118.244 191.039 118.244 189.85C118.244 188.662 117.28 187.698 116.091 187.698Z" fill="#52755D"/>
<path d="M122.693 194.012H69.5978C68.409 194.012 67.4453 194.976 67.4453 196.164C67.4453 197.353 68.409 198.317 69.5978 198.317H122.693C123.882 198.317 124.846 197.353 124.846 196.164C124.846 194.976 123.882 194.012 122.693 194.012Z" fill="#52755D"/>
<path d="M185.831 200.613H77.0588C75.87 200.613 74.9062 201.577 74.9062 202.766C74.9062 203.954 75.87 204.918 77.0588 204.918H185.831C187.02 204.918 187.984 203.954 187.984 202.766C187.984 201.577 187.02 200.613 185.831 200.613Z" fill="#52755D"/>
<path d="M224.003 207.214H52.6642C51.4754 207.214 50.5117 208.178 50.5117 209.366C50.5117 210.555 51.4754 211.519 52.6642 211.519H224.003C225.192 211.519 226.156 210.555 226.156 209.366C226.156 208.178 225.192 207.214 224.003 207.214Z" fill="#52755D"/>
<path d="M243.806 213.241H160.002C158.814 213.241 157.85 214.205 157.85 215.393C157.85 216.582 158.814 217.546 160.002 217.546H243.806C244.995 217.546 245.959 216.582 245.959 215.393C245.959 214.205 244.995 213.241 243.806 213.241Z" fill="#52755D"/>
<path d="M144.505 213.241H60.7013C59.5125 213.241 58.5488 214.205 58.5488 215.393C58.5488 216.582 59.5125 217.546 60.7013 217.546H144.505C145.694 217.546 146.658 216.582 146.658 215.393C146.658 214.205 145.694 213.241 144.505 213.241Z" fill="#52755D"/>
<path d="M189.276 219.555H114.656C113.468 219.555 112.504 220.519 112.504 221.707C112.504 222.896 113.468 223.86 114.656 223.86H189.276C190.465 223.86 191.429 222.896 191.429 221.707C191.429 220.519 190.465 219.555 189.276 219.555Z" fill="#52755D"/>
<path d="M88.8255 219.268H55.8205C54.6318 219.268 53.668 220.232 53.668 221.421C53.668 222.609 54.6318 223.573 55.8205 223.573H88.8255C90.0143 223.573 90.978 222.609 90.978 221.421C90.978 220.232 90.0143 219.268 88.8255 219.268Z" fill="#52755D"/>
<path d="M240.076 225.582H62.9962C61.8074 225.582 60.8438 226.546 60.8438 227.735C60.8438 228.923 61.8074 229.887 62.9962 229.887H240.076C241.264 229.887 242.228 228.923 242.228 227.735C242.228 226.546 241.264 225.582 240.076 225.582Z" fill="#52755D"/>
<path d="M122.692 232.183H89.6877C88.4989 232.183 87.5352 233.147 87.5352 234.335C87.5352 235.524 88.4989 236.488 89.6877 236.488H122.692C123.881 236.488 124.845 235.524 124.845 234.335C124.845 233.147 123.881 232.183 122.692 232.183Z" fill="#52755D"/>
<path d="M231.751 232.183H153.974C152.786 232.183 151.822 233.147 151.822 234.335C151.822 235.524 152.786 236.488 153.974 236.488H231.751C232.94 236.488 233.904 235.524 233.904 234.335C233.904 233.147 232.94 232.183 231.751 232.183Z" fill="#52755D"/>
<path d="M204.487 238.497H78.7814C77.5926 238.497 76.6289 239.461 76.6289 240.649C76.6289 241.838 77.5926 242.802 78.7814 242.802H204.487C205.676 242.802 206.64 241.838 206.64 240.649C206.64 239.461 205.676 238.497 204.487 238.497Z" fill="#52755D"/>
<path d="M196.45 251.125H107.767C106.579 251.125 105.615 252.089 105.615 253.277C105.615 254.466 106.579 255.43 107.767 255.43H196.45C197.639 255.43 198.603 254.466 198.603 253.277C198.603 252.089 197.639 251.125 196.45 251.125Z" fill="#52755D"/>
<path d="M259.304 187.698H125.562C124.374 187.698 123.41 188.662 123.41 189.85C123.41 191.039 124.374 192.003 125.562 192.003H259.304C260.493 192.003 261.457 191.039 261.457 189.85C261.457 188.662 260.493 187.698 259.304 187.698Z" fill="#52755D"/>
<path d="M254.711 194.012H133.884C132.696 194.012 131.732 194.976 131.732 196.164C131.732 197.353 132.696 198.317 133.884 198.317H254.711C255.9 198.317 256.864 197.353 256.864 196.164C256.864 194.976 255.9 194.012 254.711 194.012Z" fill="#52755D"/>
<path d="M194.156 181.384H101.168C99.9793 181.384 99.0156 182.348 99.0156 183.537C99.0156 184.725 99.9793 185.689 101.168 185.689H194.156C195.345 185.689 196.309 184.725 196.309 183.537C196.309 182.348 195.345 181.384 194.156 181.384Z" fill="#52755D"/>
<path d="M171.768 260.596H118.673C117.485 260.596 116.521 261.56 116.521 262.748C116.521 263.937 117.485 264.901 118.673 264.901H171.768C172.957 264.901 173.921 263.937 173.921 262.748C173.921 261.56 172.957 260.596 171.768 260.596Z" fill="#52755D"/>
<path d="M122.836 269.35C122.836 268.161 123.8 267.197 124.988 267.197H178.083C179.272 267.197 180.236 268.161 180.236 269.35C180.236 270.538 179.272 271.502 178.083 271.502H124.988C123.8 271.502 122.836 270.538 122.836 269.35Z" fill="#52755D"/>
<path d="M99.0157 143.5H74.9077C74.1152 143.5 73.4727 144.142 73.4727 144.935V154.406C73.4727 155.199 74.1152 155.841 74.9077 155.841H99.0157C99.8083 155.841 100.451 155.199 100.451 154.406V144.935C100.451 144.142 99.8083 143.5 99.0157 143.5Z" fill="url(#paint2_linear_60144_1105)"/>
<path d="M99.0145 143.07H74.9065C73.8762 143.07 73.041 143.905 73.041 144.935V154.406C73.041 155.436 73.8762 156.272 74.9065 156.272H99.0145C100.045 156.272 100.881 155.436 100.881 154.406V144.935C100.881 143.905 100.045 143.07 99.0145 143.07Z" stroke="white" stroke-opacity="0.8" stroke-width="3"/>
<path d="M212.38 129.437H202.335C201.542 129.437 200.9 130.079 200.9 130.872V149.527C200.9 150.32 201.542 150.962 202.335 150.962H212.38C213.172 150.962 213.815 150.32 213.815 149.527V130.872C213.815 130.079 213.172 129.437 212.38 129.437Z" fill="url(#paint3_linear_60144_1105)"/>
<path d="M212.38 129.006H202.335C201.305 129.006 200.469 129.842 200.469 130.872V149.527C200.469 150.557 201.305 151.392 202.335 151.392H212.38C213.41 151.392 214.245 150.557 214.245 149.527V130.872C214.245 129.842 213.41 129.006 212.38 129.006Z" stroke="white" stroke-opacity="0.8" stroke-width="3"/>
<path d="M119.965 130.872H101.884C101.091 130.872 100.449 131.514 100.449 132.307V154.406C100.449 155.199 101.091 155.841 101.884 155.841H119.965C120.757 155.841 121.4 155.199 121.4 154.406V132.307C121.4 131.514 120.757 130.872 119.965 130.872Z" fill="url(#paint4_linear_60144_1105)"/>
<path d="M119.967 130.442H101.886C100.855 130.442 100.02 131.277 100.02 132.307V154.406C100.02 155.436 100.855 156.272 101.886 156.272H119.967C120.997 156.272 121.832 155.436 121.832 154.406V132.307C121.832 131.277 120.997 130.442 119.967 130.442Z" stroke="white" stroke-opacity="0.8" stroke-width="3"/>
<path d="M131.733 118.818H119.966C119.173 118.818 118.531 119.46 118.531 120.253V156.702C118.531 157.495 119.173 158.137 119.966 158.137H131.733C132.526 158.137 133.168 157.495 133.168 156.702V120.253C133.168 119.46 132.526 118.818 131.733 118.818Z" fill="url(#paint5_linear_60144_1105)"/>
<path d="M131.733 118.388H119.966C118.936 118.388 118.1 119.223 118.1 120.253V156.702C118.1 157.732 118.936 158.568 119.966 158.568H131.733C132.763 158.568 133.598 157.732 133.598 156.702V120.253C133.598 119.223 132.763 118.388 131.733 118.388Z" stroke="white" stroke-opacity="0.8" stroke-width="3"/>
<path d="M173.349 118.818H156.99C156.197 118.818 155.555 119.46 155.555 120.253V155.554C155.555 156.347 156.197 156.989 156.99 156.989H173.349C174.141 156.989 174.784 156.347 174.784 155.554V120.253C174.784 119.46 174.141 118.818 173.349 118.818Z" fill="url(#paint6_linear_60144_1105)"/>
<path d="M173.348 118.388H156.989C155.959 118.388 155.123 119.223 155.123 120.253V155.554C155.123 156.584 155.959 157.42 156.989 157.42H173.348C174.378 157.42 175.213 156.584 175.213 155.554V120.253C175.213 119.223 174.378 118.388 173.348 118.388Z" stroke="white" stroke-opacity="0.8" stroke-width="3"/>
<path d="M139.195 110.495H134.603C133.81 110.495 133.168 111.137 133.168 111.93V156.702C133.168 157.495 133.81 158.137 134.603 158.137H139.195C139.987 158.137 140.63 157.495 140.63 156.702V111.93C140.63 111.137 139.987 110.495 139.195 110.495Z" fill="url(#paint7_linear_60144_1105)"/>
<path d="M139.194 110.065H134.602C133.572 110.065 132.736 110.9 132.736 111.93V156.702C132.736 157.732 133.572 158.568 134.602 158.568H139.194C140.224 158.568 141.059 157.732 141.059 156.702V111.93C141.059 110.9 140.224 110.065 139.194 110.065Z" stroke="white" stroke-opacity="0.8" stroke-width="3"/>
<path d="M163.015 112.217H158.423C157.63 112.217 156.988 112.859 156.988 113.652V158.424C156.988 159.217 157.63 159.859 158.423 159.859H163.015C163.807 159.859 164.45 159.217 164.45 158.424V113.652C164.45 112.859 163.807 112.217 163.015 112.217Z" fill="url(#paint8_linear_60144_1105)"/>
<path d="M163.017 111.786H158.425C157.395 111.786 156.559 112.622 156.559 113.652V158.424C156.559 159.454 157.395 160.289 158.425 160.289H163.017C164.047 160.289 164.882 159.454 164.882 158.424V113.652C164.882 112.622 164.047 111.786 163.017 111.786Z" stroke="white" stroke-opacity="0.8" stroke-width="3"/>
<path d="M154.12 90.979H142.066C141.273 90.979 140.631 91.6215 140.631 92.414V158.998C140.631 159.791 141.273 160.433 142.066 160.433H154.12C154.912 160.433 155.555 159.791 155.555 158.998V92.414C155.555 91.6215 154.912 90.979 154.12 90.979Z" fill="url(#paint9_linear_60144_1105)"/>
<path d="M154.119 90.5486H142.065C141.035 90.5486 140.199 91.3838 140.199 92.4141V158.998C140.199 160.028 141.035 160.864 142.065 160.864H154.119C155.149 160.864 155.984 160.028 155.984 158.998V92.4141C155.984 91.3838 155.149 90.5486 154.119 90.5486Z" stroke="white" stroke-opacity="0.8" stroke-width="3"/>
<path d="M198.03 92.7009H176.218C175.425 92.7009 174.783 93.3434 174.783 94.1359V160.72C174.783 161.513 175.425 162.155 176.218 162.155H198.03C198.822 162.155 199.465 161.513 199.465 160.72V94.1359C199.465 93.3434 198.822 92.7009 198.03 92.7009Z" fill="url(#paint10_linear_60144_1105)"/>
<path d="M198.03 92.2705H176.218C175.188 92.2705 174.352 93.1057 174.352 94.136V160.72C174.352 161.75 175.188 162.586 176.218 162.586H198.03C199.06 162.586 199.895 161.75 199.895 160.72V94.136C199.895 93.1057 199.06 92.2705 198.03 92.2705Z" stroke="white" stroke-opacity="0.8" stroke-width="3"/>
<path d="M202.622 118.818H192.003C191.21 118.818 190.568 119.46 190.568 120.253V156.702C190.568 157.495 191.21 158.137 192.003 158.137H202.622C203.414 158.137 204.057 157.495 204.057 156.702V120.253C204.057 119.46 203.414 118.818 202.622 118.818Z" fill="url(#paint11_linear_60144_1105)"/>
<path d="M202.622 118.388H192.003C190.973 118.388 190.137 119.223 190.137 120.253V156.702C190.137 157.732 190.973 158.568 192.003 158.568H202.622C203.652 158.568 204.487 157.732 204.487 156.702V120.253C204.487 119.223 203.652 118.388 202.622 118.388Z" stroke="white" stroke-opacity="0.8" stroke-width="3"/>
<path d="M64.4323 152.179C64.4323 152.179 58.2618 149.739 56.5398 149.739C54.8178 149.739 48.9343 155.623 48.9343 155.623L37.8848 162.224H246.821C238.354 152.179 238.067 159.497 227.735 150.887C217.403 142.277 210.515 143.569 210.515 143.569H206.21H200.183C200.183 143.569 197.313 144.717 186.694 148.161C176.075 151.605 174.927 150.887 174.927 150.887L170.048 152.179L157.707 150.887L149.097 152.179H142.496L136.469 156.627C125.563 155.479 122.578 151.544 115.268 152.179C107.959 152.814 102.254 155.623 102.254 155.623L95.1413 154.188C88.9708 155.623 92.7018 157.345 82.8003 155.408C72.8988 153.47 69.7418 152.862 69.7418 152.862L64.4323 152.179Z" fill="url(#paint12_linear_60144_1105)" stroke="white"/>
<path d="M264.757 171.339H22.2423C21.0536 171.339 20.0898 172.303 20.0898 173.491C20.0898 174.68 21.0536 175.644 22.2423 175.644H264.757C265.946 175.644 266.91 174.68 266.91 173.491C266.91 172.303 265.946 171.339 264.757 171.339Z" fill="#384730"/>
<path d="M248.973 165.025H38.0275C36.8387 165.025 35.875 165.989 35.875 167.178C35.875 168.366 36.8387 169.33 38.0275 169.33H248.973C250.161 169.33 251.125 168.366 251.125 167.178C251.125 165.989 250.161 165.025 248.973 165.025Z" fill="#384730"/>
<mask id="mask2_60144_1105" style="mask-type:alpha" maskUnits="userSpaceOnUse" x="73" y="165" width="145" height="75">
<path d="M217.834 165.025H73.1855V239.645H217.834V165.025Z" fill="white"/>
</mask>
<g mask="url(#mask2_60144_1105)">
<g filter="url(#filter2_f_60144_1105)">
<path d="M98.7285 181.097H74.6205C73.828 181.097 73.1855 180.455 73.1855 179.662V170.191C73.1855 169.399 73.828 168.756 74.6205 168.756H98.7285C99.521 168.756 100.164 169.399 100.164 170.191V179.662C100.164 180.455 99.521 181.097 98.7285 181.097Z" fill="#F0B862" fill-opacity="0.3"/>
<path d="M98.7294 181.528H74.6214C73.5911 181.528 72.7559 180.692 72.7559 179.662V170.191C72.7559 169.161 73.5911 168.326 74.6214 168.326H98.7294C99.7597 168.326 100.594 169.161 100.594 170.191V179.662C100.594 180.692 99.7597 181.528 98.7294 181.528Z" stroke="white" stroke-opacity="0.3" stroke-width="3"/>
</g>
<g filter="url(#filter3_f_60144_1105)">
<path d="M212.095 195.16H202.05C201.257 195.16 200.615 194.518 200.615 193.725V175.07C200.615 174.278 201.257 173.635 202.05 173.635H212.095C212.887 173.635 213.53 174.278 213.53 175.07V193.725C213.53 194.518 212.887 195.16 212.095 195.16Z" fill="#F0B862" fill-opacity="0.3"/>
<path d="M212.095 195.591H202.05C201.02 195.591 200.184 194.755 200.184 193.725V175.07C200.184 174.04 201.02 173.205 202.05 173.205H212.095C213.125 173.205 213.96 174.04 213.96 175.07V193.725C213.96 194.755 213.125 195.591 212.095 195.591Z" stroke="white" stroke-opacity="0.3" stroke-width="3"/>
</g>
<g filter="url(#filter4_f_60144_1105)">
<path d="M119.68 193.725H101.599C100.806 193.725 100.164 193.083 100.164 192.29V170.191C100.164 169.399 100.806 168.756 101.599 168.756H119.68C120.472 168.756 121.115 169.399 121.115 170.191V192.29C121.115 193.083 120.472 193.725 119.68 193.725Z" fill="#F0B862" fill-opacity="0.3"/>
<path d="M119.681 194.156H101.6C100.57 194.156 99.7344 193.32 99.7344 192.29V170.191C99.7344 169.161 100.57 168.326 101.6 168.326H119.681C120.711 168.326 121.546 169.161 121.546 170.191V192.29C121.546 193.32 120.711 194.156 119.681 194.156Z" stroke="white" stroke-opacity="0.3" stroke-width="3"/>
</g>
<g filter="url(#filter5_f_60144_1105)">
<path d="M131.448 205.779H119.681C118.888 205.779 118.246 205.137 118.246 204.344V167.895C118.246 167.103 118.888 166.46 119.681 166.46H131.448C132.24 166.46 132.883 167.103 132.883 167.895V204.344C132.883 205.137 132.24 205.779 131.448 205.779Z" fill="#F0B862" fill-opacity="0.3"/>
<path d="M131.447 206.21H119.68C118.65 206.21 117.814 205.374 117.814 204.344V167.895C117.814 166.865 118.65 166.03 119.68 166.03H131.447C132.477 166.03 133.312 166.865 133.312 167.895V204.344C133.312 205.374 132.477 206.21 131.447 206.21Z" stroke="white" stroke-opacity="0.3" stroke-width="3"/>
</g>
<g filter="url(#filter6_f_60144_1105)">
<path d="M173.064 205.779H156.705C155.912 205.779 155.27 205.137 155.27 204.344V169.043C155.27 168.251 155.912 167.608 156.705 167.608H173.064C173.856 167.608 174.499 168.251 174.499 169.043V204.344C174.499 205.137 173.856 205.779 173.064 205.779Z" fill="#F0B862" fill-opacity="0.3"/>
<path d="M173.063 206.21H156.704C155.674 206.21 154.838 205.374 154.838 204.344V169.043C154.838 168.013 155.674 167.178 156.704 167.178H173.063C174.093 167.178 174.928 168.013 174.928 169.043V204.344C174.928 205.374 174.093 206.21 173.063 206.21Z" stroke="white" stroke-opacity="0.3" stroke-width="3"/>
</g>
<g filter="url(#filter7_f_60144_1105)">
<path d="M138.91 214.102H134.318C133.525 214.102 132.883 213.46 132.883 212.667V167.895C132.883 167.103 133.525 166.46 134.318 166.46H138.91C139.702 166.46 140.345 167.103 140.345 167.895V212.667C140.345 213.46 139.702 214.102 138.91 214.102Z" fill="#F0B862" fill-opacity="0.3"/>
<path d="M138.909 214.533H134.317C133.287 214.533 132.451 213.697 132.451 212.667V167.895C132.451 166.865 133.287 166.03 134.317 166.03H138.909C139.939 166.03 140.774 166.865 140.774 167.895V212.667C140.774 213.697 139.939 214.533 138.909 214.533Z" stroke="white" stroke-opacity="0.3" stroke-width="3"/>
</g>
<g filter="url(#filter8_f_60144_1105)">
<path d="M162.73 212.38H158.138C157.345 212.38 156.703 211.738 156.703 210.945V166.173C156.703 165.38 157.345 164.738 158.138 164.738H162.73C163.522 164.738 164.165 165.38 164.165 166.173V210.945C164.165 211.738 163.522 212.38 162.73 212.38Z" fill="#F0B862" fill-opacity="0.3"/>
<path d="M162.729 212.811H158.137C157.107 212.811 156.271 211.975 156.271 210.945V166.173C156.271 165.143 157.107 164.308 158.137 164.308H162.729C163.759 164.308 164.594 165.143 164.594 166.173V210.945C164.594 211.975 163.759 212.811 162.729 212.811Z" stroke="white" stroke-opacity="0.3" stroke-width="3"/>
</g>
<g filter="url(#filter9_f_60144_1105)">
<path d="M153.835 233.618H141.781C140.988 233.618 140.346 232.976 140.346 232.183V165.599C140.346 164.807 140.988 164.164 141.781 164.164H153.835C154.627 164.164 155.27 164.807 155.27 165.599V232.183C155.27 232.976 154.627 233.618 153.835 233.618Z" fill="#929773" fill-opacity="0.3"/>
<path d="M153.834 234.049H141.78C140.75 234.049 139.914 233.213 139.914 232.183V165.599C139.914 164.569 140.75 163.734 141.78 163.734H153.834C154.864 163.734 155.699 164.569 155.699 165.599V232.183C155.699 233.213 154.864 234.049 153.834 234.049Z" stroke="white" stroke-opacity="0.3" stroke-width="3"/>
</g>
<g filter="url(#filter10_f_60144_1105)">
<path d="M197.745 231.896H175.933C175.14 231.896 174.498 231.254 174.498 230.461V163.877C174.498 163.084 175.14 162.442 175.933 162.442H197.745C198.537 162.442 199.18 163.084 199.18 163.877V230.461C199.18 231.254 198.537 231.896 197.745 231.896Z" fill="#F0B862" fill-opacity="0.3"/>
<path d="M197.744 232.327H175.932C174.902 232.327 174.066 231.491 174.066 230.461V163.877C174.066 162.847 174.902 162.012 175.932 162.012H197.744C198.774 162.012 199.609 162.847 199.609 163.877V230.461C199.609 231.491 198.774 232.327 197.744 232.327Z" stroke="white" stroke-opacity="0.3" stroke-width="3"/>
</g>
<g filter="url(#filter11_f_60144_1105)">
<path d="M202.337 205.779H191.718C190.925 205.779 190.283 205.137 190.283 204.344V167.895C190.283 167.103 190.925 166.46 191.718 166.46H202.337C203.129 166.46 203.772 167.103 203.772 167.895V204.344C203.772 205.137 203.129 205.779 202.337 205.779Z" fill="#F0B862" fill-opacity="0.3"/>
<path d="M202.337 206.21H191.718C190.688 206.21 189.852 205.374 189.852 204.344V167.895C189.852 166.865 190.688 166.03 191.718 166.03H202.337C203.367 166.03 204.202 166.865 204.202 167.895V204.344C204.202 205.374 203.367 206.21 202.337 206.21Z" stroke="white" stroke-opacity="0.3" stroke-width="3"/>
</g>
</g>
</g>
</g>
</g>
<defs>
<filter id="filter0_f_60144_1105" x="15.8027" y="53.113" width="247.645" height="68.844" filterUnits="userSpaceOnUse" color-interpolation-filters="sRGB">
<feFlood flood-opacity="0" result="BackgroundImageFix"/>
<feBlend mode="normal" in="SourceGraphic" in2="BackgroundImageFix" result="shape"/>
<feGaussianBlur stdDeviation="2" result="effect1_foregroundBlur_60144_1105"/>
</filter>
<filter id="filter1_f_60144_1105" x="-1.78711" y="73.0356" width="293.156" height="78.2786" filterUnits="userSpaceOnUse" color-interpolation-filters="sRGB">
<feFlood flood-opacity="0" result="BackgroundImageFix"/>
<feBlend mode="normal" in="SourceGraphic" in2="BackgroundImageFix" result="shape"/>
<feGaussianBlur stdDeviation="0.5" result="effect1_foregroundBlur_60144_1105"/>
</filter>
<filter id="filter2_f_60144_1105" x="67.2559" y="162.826" width="38.8379" height="24.2019" filterUnits="userSpaceOnUse" color-interpolation-filters="sRGB">
<feFlood flood-opacity="0" result="BackgroundImageFix"/>
<feBlend mode="normal" in="SourceGraphic" in2="BackgroundImageFix" result="shape"/>
<feGaussianBlur stdDeviation="2" result="effect1_foregroundBlur_60144_1105"/>
</filter>
<filter id="filter3_f_60144_1105" x="194.684" y="167.705" width="24.7754" height="33.386" filterUnits="userSpaceOnUse" color-interpolation-filters="sRGB">
<feFlood flood-opacity="0" result="BackgroundImageFix"/>
<feBlend mode="normal" in="SourceGraphic" in2="BackgroundImageFix" result="shape"/>
<feGaussianBlur stdDeviation="2" result="effect1_foregroundBlur_60144_1105"/>
</filter>
<filter id="filter4_f_60144_1105" x="94.2344" y="162.826" width="32.8125" height="36.8301" filterUnits="userSpaceOnUse" color-interpolation-filters="sRGB">
<feFlood flood-opacity="0" result="BackgroundImageFix"/>
<feBlend mode="normal" in="SourceGraphic" in2="BackgroundImageFix" result="shape"/>
<feGaussianBlur stdDeviation="2" result="effect1_foregroundBlur_60144_1105"/>
</filter>
<filter id="filter5_f_60144_1105" x="112.314" y="160.53" width="26.498" height="51.1799" filterUnits="userSpaceOnUse" color-interpolation-filters="sRGB">
<feFlood flood-opacity="0" result="BackgroundImageFix"/>
<feBlend mode="normal" in="SourceGraphic" in2="BackgroundImageFix" result="shape"/>
<feGaussianBlur stdDeviation="2" result="effect1_foregroundBlur_60144_1105"/>
</filter>
<filter id="filter6_f_60144_1105" x="149.338" y="161.678" width="31.0898" height="50.032" filterUnits="userSpaceOnUse" color-interpolation-filters="sRGB">
<feFlood flood-opacity="0" result="BackgroundImageFix"/>
<feBlend mode="normal" in="SourceGraphic" in2="BackgroundImageFix" result="shape"/>
<feGaussianBlur stdDeviation="2" result="effect1_foregroundBlur_60144_1105"/>
</filter>
<filter id="filter7_f_60144_1105" x="126.951" y="160.53" width="19.3223" height="59.5029" filterUnits="userSpaceOnUse" color-interpolation-filters="sRGB">
<feFlood flood-opacity="0" result="BackgroundImageFix"/>
<feBlend mode="normal" in="SourceGraphic" in2="BackgroundImageFix" result="shape"/>
<feGaussianBlur stdDeviation="2" result="effect1_foregroundBlur_60144_1105"/>
</filter>
<filter id="filter8_f_60144_1105" x="150.771" y="158.808" width="19.3223" height="59.5029" filterUnits="userSpaceOnUse" color-interpolation-filters="sRGB">
<feFlood flood-opacity="0" result="BackgroundImageFix"/>
<feBlend mode="normal" in="SourceGraphic" in2="BackgroundImageFix" result="shape"/>
<feGaussianBlur stdDeviation="2" result="effect1_foregroundBlur_60144_1105"/>
</filter>
<filter id="filter9_f_60144_1105" x="134.414" y="158.234" width="26.7852" height="81.3149" filterUnits="userSpaceOnUse" color-interpolation-filters="sRGB">
<feFlood flood-opacity="0" result="BackgroundImageFix"/>
<feBlend mode="normal" in="SourceGraphic" in2="BackgroundImageFix" result="shape"/>
<feGaussianBlur stdDeviation="2" result="effect1_foregroundBlur_60144_1105"/>
</filter>
<filter id="filter10_f_60144_1105" x="168.566" y="156.512" width="36.543" height="81.3149" filterUnits="userSpaceOnUse" color-interpolation-filters="sRGB">
<feFlood flood-opacity="0" result="BackgroundImageFix"/>
<feBlend mode="normal" in="SourceGraphic" in2="BackgroundImageFix" result="shape"/>
<feGaussianBlur stdDeviation="2" result="effect1_foregroundBlur_60144_1105"/>
</filter>
<filter id="filter11_f_60144_1105" x="184.352" y="160.53" width="25.3496" height="51.1799" filterUnits="userSpaceOnUse" color-interpolation-filters="sRGB">
<feFlood flood-opacity="0" result="BackgroundImageFix"/>
<feBlend mode="normal" in="SourceGraphic" in2="BackgroundImageFix" result="shape"/>
<feGaussianBlur stdDeviation="2" result="effect1_foregroundBlur_60144_1105"/>
</filter>
<linearGradient id="paint0_linear_60144_1105" x1="14.9237" y1="86.961" x2="259.448" y2="86.961" gradientUnits="userSpaceOnUse">
<stop stop-color="#CADCC2"/>
<stop offset="1" stop-color="#DEE3DC"/>
</linearGradient>
<linearGradient id="paint1_linear_60144_1105" x1="145.373" y1="86.3871" x2="145.373" y2="149.814" gradientUnits="userSpaceOnUse">
<stop stop-color="#719A7C"/>
<stop offset="1" stop-color="#223227"/>
</linearGradient>
<linearGradient id="paint2_linear_60144_1105" x1="86.9617" y1="143.5" x2="86.9617" y2="155.841" gradientUnits="userSpaceOnUse">
<stop stop-color="#F0B862"/>
<stop offset="1" stop-color="#8A6A38"/>
</linearGradient>
<linearGradient id="paint3_linear_60144_1105" x1="207.357" y1="129.437" x2="207.357" y2="150.962" gradientUnits="userSpaceOnUse">
<stop stop-color="#F0B862"/>
<stop offset="1" stop-color="#8A6A38"/>
</linearGradient>
<linearGradient id="paint4_linear_60144_1105" x1="110.924" y1="130.872" x2="110.924" y2="155.841" gradientUnits="userSpaceOnUse">
<stop stop-color="#F0B862"/>
<stop offset="1" stop-color="#8A6A38"/>
</linearGradient>
<linearGradient id="paint5_linear_60144_1105" x1="125.85" y1="118.818" x2="125.85" y2="158.137" gradientUnits="userSpaceOnUse">
<stop stop-color="#F0B862"/>
<stop offset="1" stop-color="#8A6A38"/>
</linearGradient>
<linearGradient id="paint6_linear_60144_1105" x1="165.169" y1="118.818" x2="165.169" y2="156.989" gradientUnits="userSpaceOnUse">
<stop stop-color="#F0B862"/>
<stop offset="1" stop-color="#8A6A38"/>
</linearGradient>
<linearGradient id="paint7_linear_60144_1105" x1="136.899" y1="110.495" x2="136.899" y2="158.137" gradientUnits="userSpaceOnUse">
<stop stop-color="#F0B862"/>
<stop offset="1" stop-color="#8A6A38"/>
</linearGradient>
<linearGradient id="paint8_linear_60144_1105" x1="160.719" y1="112.217" x2="160.719" y2="159.859" gradientUnits="userSpaceOnUse">
<stop stop-color="#F0B862"/>
<stop offset="1" stop-color="#8A6A38"/>
</linearGradient>
<linearGradient id="paint9_linear_60144_1105" x1="148.093" y1="90.979" x2="148.093" y2="160.433" gradientUnits="userSpaceOnUse">
<stop stop-color="#929773"/>
<stop offset="1" stop-color="#2F3125"/>
</linearGradient>
<linearGradient id="paint10_linear_60144_1105" x1="187.124" y1="92.7009" x2="187.124" y2="162.155" gradientUnits="userSpaceOnUse">
<stop stop-color="#F0B862"/>
<stop offset="1" stop-color="#8A6A38"/>
</linearGradient>
<linearGradient id="paint11_linear_60144_1105" x1="197.312" y1="118.818" x2="197.312" y2="158.137" gradientUnits="userSpaceOnUse">
<stop stop-color="#F0B862"/>
<stop offset="1" stop-color="#8A6A38"/>
</linearGradient>
<linearGradient id="paint12_linear_60144_1105" x1="142.353" y1="162.224" x2="142.353" y2="143.5" gradientUnits="userSpaceOnUse">
<stop stop-color="#384730"/>
<stop offset="1" stop-color="#394731"/>
</linearGradient>
<clipPath id="clip0_60144_1105">
<rect width="287" height="287" fill="white"/>
</clipPath>
</defs>
</svg>
