<svg width="320" height="321" viewBox="0 0 320 321" fill="none" xmlns="http://www.w3.org/2000/svg">
<path d="M56.3501 94.2951L217.416 35.7518C247.629 24.77 280.206 44.7428 284.124 76.6504L302.599 227.124C305.965 254.532 286.474 279.479 259.066 282.844L93.3105 303.196C65.9021 306.562 40.9551 287.071 37.5898 259.663L23.8033 147.381C20.965 124.265 34.4619 102.251 56.3501 94.2951Z" fill="#009F79" stroke="white" stroke-width="20"/>
<rect x="18.7106" y="105.896" width="267" height="204.921" rx="50" transform="rotate(-7 18.7106 105.896)" fill="url(#paint0_linear_60144_1208)" stroke="white" stroke-width="20"/>
<mask id="mask0_60144_1208" style="mask-type:alpha" maskUnits="userSpaceOnUse" x="14" y="69" width="292" height="245">
<rect x="7.56641" y="97.1897" width="279.641" height="224.921" rx="60" transform="rotate(-7 7.56641 97.1897)" fill="url(#paint1_linear_60144_1208)"/>
</mask>
<g mask="url(#mask0_60144_1208)">
<rect x="218.851" y="153.838" width="113.933" height="60.9717" rx="30.4858" transform="rotate(-7 218.851 153.838)" fill="#009F79" stroke="white" stroke-width="20"/>
</g>
<circle cx="244.412" cy="181.414" r="15.0531" transform="rotate(-7 244.412 181.414)" fill="white"/>
<rect x="40.4693" y="123.62" width="119.302" height="168.338" rx="59.6509" transform="rotate(-7 40.4693 123.62)" fill="url(#paint2_linear_60144_1208)" stroke="white"/>
<path d="M103.417 130.606C118.711 128.728 131.721 141.169 133.841 158.429C135.96 175.688 126.346 190.907 111.052 192.785C95.7574 194.663 82.7022 182.228 80.583 164.968C78.4637 147.708 88.1227 132.483 103.417 130.606ZM109.622 181.14C118.581 180.04 124.38 170.596 123.049 159.754C121.717 148.911 113.806 141.15 104.847 142.25C95.8873 143.35 90.0951 152.85 91.4197 163.637C92.7442 174.425 100.662 182.24 109.622 181.14Z" fill="#F6F6F6"/>
<path d="M70.6012 210.289C69.2181 209.125 68.9826 207.581 69.7246 205.862L71.7052 201.421C72.5241 199.58 73.7689 199.245 75.2877 200.392C86.4782 208.859 100.068 212.553 113.213 210.939C126.403 209.319 138.696 202.447 147.506 191.524C148.702 190.044 149.989 190.054 151.242 191.655L154.238 195.485C155.374 196.974 155.558 198.467 154.536 199.87C145.108 213.424 130.792 222.524 114.887 224.477C99.0271 226.424 83.0342 221.116 70.6122 210.287L70.6012 210.289Z" fill="#F6F6F6"/>
<path d="M117.491 245.215C126.451 244.115 134.362 251.876 135.693 262.719L146.531 261.388C144.411 244.128 131.356 231.693 116.062 233.571C100.767 235.448 91.1532 250.667 93.2724 267.927L104.064 266.602C102.733 255.759 108.532 246.316 117.491 245.215Z" fill="#F6F6F6"/>
<defs>
<linearGradient id="paint0_linear_60144_1208" x1="7.56642" y1="223.585" x2="291.916" y2="178.863" gradientUnits="userSpaceOnUse">
<stop stop-color="#009F79"/>
<stop offset="1" stop-color="#00392B" stop-opacity="0.5"/>
</linearGradient>
<linearGradient id="paint1_linear_60144_1208" x1="25.6813" y1="207.009" x2="288.147" y2="204.429" gradientUnits="userSpaceOnUse">
<stop offset="0.5" stop-color="#36BA9A"/>
<stop offset="1" stop-color="#000B08"/>
</linearGradient>
<linearGradient id="paint2_linear_60144_1208" x1="100.063" y1="123.185" x2="100.063" y2="292.522" gradientUnits="userSpaceOnUse">
<stop stop-color="#36BA9A"/>
<stop offset="1" stop-color="#4FBCA2"/>
</linearGradient>
</defs>
</svg>
